name analog
datacolumns 19
datarows 52
range 0.0 0.025500000000000002
endheader
time	ground_force_vx	ground_force_vy	ground_force_vz	ground_force_px	ground_force_py	ground_force_pz	l_ground_force_vx	l_ground_force_vy	l_ground_force_vz	l_ground_force_px	l_ground_force_py	l_ground_force_pz	ground_torque_x	ground_torque_y	ground_torque_z	l_ground_torque_x	l_ground_torque_y	l_ground_torque_z
0.0	-0.0	-0.0	-0.0	3.549483060836792	30.038768768310547	-370.7712097167969	-19.18079376220703	-93.84759521484376	-529.0963134765625	-0.0	-0.0	-0.0	-0.0	-0.0	-0.0	127790.203125	43610.1015625	-15203.091796875
0.0005	-0.0	-0.0	-0.0	2.96114182472229	30.607702255249023	-373.4473571777344	-19.535512924194336	-94.23924255371094	-527.7757568359375	-0.0	-0.0	-0.0	-0.0	-0.0	-0.0	127507.5546875	43906.140625	-15273.904296875
0.001	-0.0	-0.0	-0.0	2.496677875518799	30.732648849487305	-374.50335693359375	-19.85231590270996	-93.9911651611328	-526.3050537109375	-0.0	-0.0	-0.0	-0.0	-0.0	-0.0	127255.3046875	44141.66796875	-15385.6513671875
0.0015	-0.0	-0.0	-0.0	2.678335666656494	30.96410369873047	-378.393798828125	-19.71257209777832	-94.4176025390625	-524.77490234375	-0.0	-0.0	-0.0	-0.0	-0.0	-0.0	126826.984375	44126.7421875	-15362.90625
0.002	-0.0	-0.0	-0.0	2.783087015151977	30.64261054992676	-380.7307434082031	-19.550722122192383	-94.11531066894533	-521.9872436523438	-0.0	-0.0	-0.0	-0.0	-0.0	-0.0	126465.609375	44262.59765625	-15302.8310546875
0.0025	-0.0	-0.0	-0.0	2.94364595413208	30.838817596435547	-383.6961059570313	-19.462329864501957	-93.95701599121094	-520.3041381835938	-0.0	-0.0	-0.0	-0.0	-0.0	-0.0	125861.625	44406.90234375	-15326.962890625
0.003	-0.0	-0.0	-0.0	3.2116644382476807	30.518266677856445	-388.4281311035156	-19.303306579589844	-94.13357543945312	-517.3024291992188	-0.0	-0.0	-0.0	-0.0	-0.0	-0.0	125196.171875	44438.33984375	-15344.2822265625
0.0035	-0.0	-0.0	-0.0	3.693252086639404	30.464330673217773	-395.7724609375	-19.09039878845215	-93.74431610107422	-513.463623046875	-0.0	-0.0	-0.0	-0.0	-0.0	-0.0	124564.3828125	44426.0859375	-15260.9189453125
0.004	-0.0	-0.0	-0.0	4.156786918640137	30.606746673583984	-400.4366760253906	-18.8598747253418	-93.56803131103516	-510.1097412109375	-0.0	-0.0	-0.0	-0.0	-0.0	-0.0	123390.4609375	44298.09765625	-15171.7470703125
0.0045000000000000005	-0.0	-0.0	-0.0	4.318458557128906	30.573400497436523	-405.8004455566406	-18.505205154418945	-92.6318588256836	-505.5015563964844	-0.0	-0.0	-0.0	-0.0	-0.0	-0.0	122266.0078125	44281.703125	-14999.185546875
0.005	-0.0	-0.0	-0.0	4.960351943969727	30.554643630981445	-411.8755187988281	-18.221092224121094	-92.10114288330078	-500.9619140625	-0.0	-0.0	-0.0	-0.0	-0.0	-0.0	121269.8828125	43900.5390625	-14850.5400390625
0.0055	-0.0	-0.0	-0.0	5.460261821746826	31.089550018310547	-417.9519958496094	-17.707534790039062	-91.80142211914062	-495.3780212402344	-0.0	-0.0	-0.0	-0.0	-0.0	-0.0	120298.9296875	43648.4296875	-14743.486328125
0.006	-0.0	-0.0	-0.0	5.99564790725708	30.78704261779785	-424.1552429199219	-17.263322830200195	-90.4424285888672	-490.6294555664063	-0.0	-0.0	-0.0	-0.0	-0.0	-0.0	119018.0625	43508.5	-14642.09765625
0.006500000000000001	-0.0	-0.0	-0.0	6.068470001220703	30.30433654785156	-432.4318237304688	-17.015583038330078	-89.84139251708984	-485.8861083984375	-0.0	-0.0	-0.0	-0.0	-0.0	-0.0	118123.1015625	43381.41015625	-14374.4228515625
0.007	-0.0	-0.0	-0.0	6.761209487915039	30.323108673095703	-439.2070617675781	-17.032470703125	-88.79830169677734	-480.08990478515625	-0.0	-0.0	-0.0	-0.0	-0.0	-0.0	116847.9765625	43029.9140625	-14375.2490234375
0.0075	-0.0	-0.0	-0.0	7.471964359283447	30.055877685546875	-447.0508117675781	-16.908681869506836	-87.6315689086914	-474.7081298828125	-0.0	-0.0	-0.0	-0.0	-0.0	-0.0	116105.8984375	42768.765625	-14225.4248046875
0.008	-0.0	-0.0	-0.0	7.793421268463135	30.12905502319336	-453.2052001953125	-17.051149368286133	-86.36234283447266	-470.52777099609375	-0.0	-0.0	-0.0	-0.0	-0.0	-0.0	114686.4296875	42433.83203125	-14070.6171875
0.0085	-0.0	-0.0	-0.0	8.91776180267334	29.6837100982666	-460.89984130859375	-16.42770767211914	-85.03764343261719	-463.821044921875	-0.0	-0.0	-0.0	-0.0	-0.0	-0.0	112864.125	42198.69921875	-13987.9296875
0.009000000000000001	-0.0	-0.0	-0.0	10.04215145111084	29.7153377532959	-467.3189392089844	-16.68057632446289	-83.50167846679688	-457.6748962402344	-0.0	-0.0	-0.0	-0.0	-0.0	-0.0	111600.5390625	42054.41015625	-13767.5234375
0.0095	-0.0	-0.0	-0.0	10.740164756774902	29.444005966186523	-473.33795166015625	-16.09466552734375	-82.08869934082031	-450.4928588867188	-0.0	-0.0	-0.0	-0.0	-0.0	-0.0	110196.9921875	41737.96484375	-13606.7734375
0.01	-0.0	-0.0	-0.0	11.457999229431152	29.55648231506348	-481.72076416015625	-16.056652069091797	-80.07313537597656	-442.5256958007813	-0.0	-0.0	-0.0	-0.0	-0.0	-0.0	108707.796875	41210.0625	-13474.8046875
0.0105	-0.0	-0.0	-0.0	11.741025924682615	29.55195426940918	-488.4661254882813	-15.29296588897705	-78.45271301269531	-436.0448913574219	-0.0	-0.0	-0.0	-0.0	-0.0	-0.0	106819.8203125	40531.98828125	-13058.4736328125
0.011	-0.0	-0.0	-0.0	12.539135932922363	29.55660629272461	-496.0211791992188	-14.780033111572266	-76.29470825195312	-427.4217834472656	-0.0	-0.0	-0.0	-0.0	-0.0	-0.0	104923.4609375	40057.31640625	-12815.091796875
0.0115	-0.0	-0.0	-0.0	12.895657539367676	29.64059257507324	-502.201171875	-14.174192428588867	-74.88179779052734	-419.2718505859375	-0.0	-0.0	-0.0	-0.0	-0.0	-0.0	103053.9296875	39658.76171875	-12487.9970703125
0.012	-0.0	-0.0	-0.0	13.703821182250977	29.46216583251953	-508.3844299316406	-13.371026992797852	-72.70828247070312	-409.360107421875	-0.0	-0.0	-0.0	-0.0	-0.0	-0.0	101228.265625	39189.9375	-12290.7783203125
0.0125	-0.0	-0.0	-0.0	14.265031814575195	30.02256393432617	-515.69970703125	-13.277124404907228	-70.98127746582031	-402.6495056152344	-0.0	-0.0	-0.0	-0.0	-0.0	-0.0	99514.4375	38576.1875	-11963.9482421875
0.013000000000000001	-0.0	-0.0	-0.0	14.780635833740234	30.043087005615234	-521.7271728515625	-12.720047950744627	-68.83685302734375	-394.9117126464844	-0.0	-0.0	-0.0	-0.0	-0.0	-0.0	97420.703125	37871.34765625	-11643.330078125
0.0135	-0.0	-0.0	-0.0	15.028136253356934	30.50296401977539	-531.1270751953125	-12.479459762573242	-66.40917205810547	-383.075927734375	-0.0	-0.0	-0.0	-0.0	-0.0	-0.0	95342.0703125	37174.12109375	-11423.4169921875
0.014	-0.0	-0.0	-0.0	15.110926628112791	31.264280319213867	-537.9742431640625	-11.320677757263184	-64.72566986083984	-373.4013671875	-0.0	-0.0	-0.0	-0.0	-0.0	-0.0	93378.84375	36699.08203125	-10986.7392578125
0.0145	-0.0	-0.0	-0.0	14.96669578552246	30.955963134765625	-544.16845703125	-11.252312660217283	-62.59989929199219	-366.9034118652344	-0.0	-0.0	-0.0	-0.0	-0.0	-0.0	91636.53125	36119.4921875	-10632.185546875
0.015	-0.0	-0.0	-0.0	14.479047775268556	31.058853149414062	-552.0736083984375	-10.235919952392578	-60.56842041015625	-356.69842529296875	-0.0	-0.0	-0.0	-0.0	-0.0	-0.0	89628.0703125	35587.10546875	-10430.1171875
0.0155	-0.0	-0.0	-0.0	14.431187629699709	30.71587181091309	-559.759765625	-10.249680519104004	-58.54374694824219	-348.7489929199219	-0.0	-0.0	-0.0	-0.0	-0.0	-0.0	87565.7265625	34729.46875	-9993.822265625
0.016	-0.0	-0.0	-0.0	14.362892150878906	30.626802444458008	-567.8300170898438	-9.812858581542969	-55.89428329467773	-338.4091186523437	-0.0	-0.0	-0.0	-0.0	-0.0	-0.0	85619.4765625	34227.5234375	-9728.2158203125
0.0165	-0.0	-0.0	-0.0	14.16334629058838	30.894237518310547	-577.955810546875	-9.02778148651123	-53.6186752319336	-327.2366027832031	-0.0	-0.0	-0.0	-0.0	-0.0	-0.0	83297.375	33400.44921875	-9396.365234375
0.017	-0.0	-0.0	-0.0	14.252396583557127	30.60565948486328	-586.3790893554688	-8.918033599853516	-51.15904235839844	-316.4956970214844	-0.0	-0.0	-0.0	-0.0	-0.0	-0.0	80569.7734375	32351.91796875	-9044.1875
0.0175	-0.0	-0.0	-0.0	14.40038013458252	30.881893157958984	-597.848876953125	-8.093679428100586	-48.67335510253906	-305.0572814941406	-0.0	-0.0	-0.0	-0.0	-0.0	-0.0	77985.515625	31427.943359375	-8661.6767578125
0.018000000000000002	-0.0	-0.0	-0.0	15.119553565979004	30.42729759216309	-608.7610473632812	-7.295364856719971	-46.099552154541016	-292.4559631347656	-0.0	-0.0	-0.0	-0.0	-0.0	-0.0	75174.6484375	30502.16015625	-8243.6767578125
0.0185	-0.0	-0.0	-0.0	14.94145393371582	30.68248748779297	-619.6113891601562	-6.463391780853272	-43.02136993408203	-279.4049072265625	-0.0	-0.0	-0.0	-0.0	-0.0	-0.0	72245.234375	29323.236328125	-7794.60498046875
0.019	-0.0	-0.0	-0.0	14.929621696472168	31.12822532653809	-632.32568359375	-5.900972843170166	-40.481483459472656	-266.0048828125	-0.0	-0.0	-0.0	-0.0	-0.0	-0.0	69143.3671875	27866.419921875	-7311.8330078125
0.0195	-0.0	-0.0	-0.0	15.110234260559082	31.24102020263672	-642.434326171875	-5.00141716003418	-37.63435363769531	-252.08746337890625	-0.0	-0.0	-0.0	-0.0	-0.0	-0.0	65750.7578125	26815.517578125	-6861.45361328125
0.02	-0.0	-0.0	-0.0	15.209747314453123	31.76400756835937	-655.2409057617188	-4.003987312316895	-34.731895446777344	-238.2439422607422	-0.0	-0.0	-0.0	-0.0	-0.0	-0.0	62363.62890625	25463.17578125	-6225.87890625
0.0205	-0.0	-0.0	-0.0	15.199339866638184	32.10982131958008	-668.7024536132812	-3.7022180557250977	-32.01564407348633	-223.7985382080078	-0.0	-0.0	-0.0	-0.0	-0.0	-0.0	58669.06640625	24226.291015625	-5883.59521484375
0.021	-0.0	-0.0	-0.0	15.489155769348145	32.59933090209961	-680.2251586914062	-3.026439905166626	-29.13462829589844	-208.5699462890625	-0.0	-0.0	-0.0	-0.0	-0.0	-0.0	55257.15625	22674.8125	-5519.32080078125
0.021500000000000002	-0.0	-0.0	-0.0	15.51154899597168	32.95610809326172	-694.2186889648438	-2.472452163696289	-26.39678382873535	-192.6415557861328	-0.0	-0.0	-0.0	-0.0	-0.0	-0.0	51265.66796875	21210.7578125	-5051.35009765625
0.022	-0.0	-0.0	-0.0	15.925106048583984	32.978248596191406	-708.43310546875	-2.029083013534546	-24.012283325195312	-178.37213134765625	-0.0	-0.0	-0.0	-0.0	-0.0	-0.0	47624.7265625	19885.87109375	-4757.5556640625
0.0225	-0.0	-0.0	-0.0	15.779606819152832	32.599117279052734	-721.8101806640625	-1.6412336826324463	-20.83294105529785	-161.52700805664062	-0.0	-0.0	-0.0	-0.0	-0.0	-0.0	43418.86328125	18063.75	-4181.658203125
0.023	-0.0	-0.0	-0.0	16.43749237060547	32.63218688964844	-737.7928466796875	-1.519583821296692	-18.536760330200195	-146.2091827392578	-0.0	-0.0	-0.0	-0.0	-0.0	-0.0	39617.4765625	16219.57421875	-3854.863525390625
0.0235	-0.0	-0.0	-0.0	16.86078643798828	32.66752243041992	-753.948486328125	-1.2856580018997192	-16.173423767089844	-129.84266662597656	-0.0	-0.0	-0.0	-0.0	-0.0	-0.0	35356.96484375	14898.24609375	-3479.260498046875
0.024	-0.0	-0.0	-0.0	17.283876419067383	33.380653381347656	-768.0247802734375	-1.5863147974014282	-13.811100959777832	-114.91852569580078	-0.0	-0.0	-0.0	-0.0	-0.0	-0.0	31461.787109375	13285.66015625	-3215.904296875
0.0245	-0.0	-0.0	-0.0	18.22203063964844	34.0147819519043	-782.5948486328125	-1.840258002281189	-11.681031227111816	-98.76915740966795	-0.0	-0.0	-0.0	-0.0	-0.0	-0.0	27858.369140625	11864.787109375	-3126.580078125
0.025	-0.0	-0.0	-0.0	18.42008209228516	34.77058410644531	-800.3977661132812	-3.1251041889190674	-10.182311058044434	-86.25068664550781	-0.0	-0.0	-0.0	-0.0	-0.0	-0.0	24334.0	10044.2109375	-3030.541015625
0.025500000000000002	-0.0	-0.0	-0.0	18.74381446838379	35.84413528442383	-816.0521240234375	-4.136507987976074	-8.279426574707031	-73.24323272705078	-0.0	-0.0	-0.0	-0.0	-0.0	-0.0	21018.947265625	8653.6240234375	-2900.136474609375
